<svg xmlns="http://www.w3.org/2000/svg" xmlns:xlink="http://www.w3.org/1999/xlink" id="behance" width="320.677" height="320.674" x="0" y="0" enable-background="new 0 0 320.677 320.674" version="1.1" viewBox="0 0 320.677 320.674" xml:space="preserve"><g><linearGradient id="SVGID_1_" x1="160.339" x2="160.339" y1="0" y2="320.674" gradientUnits="userSpaceOnUse"><stop offset="0" style="stop-color:#005cff"/><stop offset="1" style="stop-color:#0047ad"/></linearGradient><path fill="url(#SVGID_1_)" d="M320.677,282.843c0,20.896-16.938,37.831-37.833,37.831H37.833C16.936,320.674,0,303.739,0,282.843 V37.833C0,16.938,16.936,0,37.833,0h245.011c20.895,0,37.833,16.938,37.833,37.833V282.843z"/><g><path fill="#FFF" d="M130.861,150.694c0,0,27.218-2.022,27.218-33.941c0-31.92-22.27-47.497-50.478-47.497H55.68h-1.525H14.781 v178.381h39.373h1.525h51.922c0,0,56.664,1.786,56.664-52.65C164.265,194.986,166.739,150.694,130.861,150.694z M55.68,100.959 h45.241h6.681c0,0,12.619,0,12.619,18.558s-7.423,21.249-15.836,21.249H55.68V100.959z M105.208,215.934H55.68v-47.671h51.922 c0,0,18.805-0.247,18.805,24.496C126.407,213.39,112.652,215.727,105.208,215.934z"/><g><path fill="#FFF" d="M239.838,114.64c-68.597,0-68.535,68.535-68.535,68.535s-4.708,68.189,68.537,68.189 c0,0,61.038,3.486,61.038-47.436h-31.392c0,0,1.046,19.181-28.601,19.181c0,0-31.392,2.1-31.392-31.038h92.43 C301.924,192.071,312.037,114.64,239.838,114.64z M267.741,168.263h-58.596c0,0,3.837-27.497,31.392-27.497 C268.091,140.766,267.741,168.263,267.741,168.263z"/><rect width="73.594" height="21.972" x="201.464" y="79.763" fill="#FFF"/></g></g></g><g opacity=".6"><linearGradient id="SVGID_2_" x1="57.746" x2="262.93" y1="-17.358" y2="338.032" gradientUnits="userSpaceOnUse"><stop offset=".225" style="stop-color:#fff;stop-opacity:.3"/><stop offset=".401" style="stop-color:#fff;stop-opacity:0"/></linearGradient><path fill="url(#SVGID_2_)" d="M320.677,282.843c0,20.896-16.938,37.831-37.833,37.831H37.833C16.936,320.674,0,303.739,0,282.843 V37.833C0,16.938,16.936,0,37.833,0h245.011c20.895,0,37.833,16.938,37.833,37.833V282.843z"/><g><linearGradient id="SVGID_3_" x1="22.802" x2="127.917" y1="64.625" y2="246.689" gradientUnits="userSpaceOnUse"><stop offset=".225" style="stop-color:#fff;stop-opacity:.3"/><stop offset=".401" style="stop-color:#fff;stop-opacity:0"/></linearGradient><path fill="url(#SVGID_3_)" d="M130.861,150.694c0,0,27.218-2.022,27.218-33.941c0-31.92-22.27-47.497-50.478-47.497H55.68h-1.525 H14.781v178.381h39.373h1.525h51.922c0,0,56.664,1.786,56.664-52.65C164.265,194.986,166.739,150.694,130.861,150.694z M55.68,100.959h45.241h6.681c0,0,12.619,0,12.619,18.558s-7.423,21.249-15.836,21.249H55.68V100.959z M105.208,215.934H55.68 v-47.671h51.922c0,0,18.805-0.247,18.805,24.496C126.407,213.39,112.652,215.727,105.208,215.934z"/><g><linearGradient id="SVGID_4_" x1="203.026" x2="273.668" y1="123.576" y2="245.931" gradientUnits="userSpaceOnUse"><stop offset=".225" style="stop-color:#fff;stop-opacity:.3"/><stop offset=".401" style="stop-color:#fff;stop-opacity:0"/></linearGradient><path fill="url(#SVGID_4_)" d="M239.838,114.64c-68.597,0-68.535,68.535-68.535,68.535s-4.708,68.189,68.537,68.189 c0,0,61.038,3.486,61.038-47.436h-31.392c0,0,1.046,19.181-28.601,19.181c0,0-31.392,2.1-31.392-31.038h92.43 C301.924,192.071,312.037,114.64,239.838,114.64z M267.741,168.263h-58.596c0,0,3.837-27.497,31.392-27.497 C268.091,140.766,267.741,168.263,267.741,168.263z"/><linearGradient id="SVGID_5_" x1="224.305" x2="252.218" y1="66.576" y2="114.921" gradientUnits="userSpaceOnUse"><stop offset=".225" style="stop-color:#fff;stop-opacity:.3"/><stop offset=".401" style="stop-color:#fff;stop-opacity:0"/></linearGradient><rect width="73.594" height="21.972" x="201.464" y="79.763" fill="url(#SVGID_5_)"/></g></g></g></svg>