<svg xmlns="http://www.w3.org/2000/svg" xmlns:xlink="http://www.w3.org/1999/xlink" width="1015" height="1015" viewBox="-0.68 -0.847 1015 1015" xml:space="preserve"><g><linearGradient id="XMLID_1_" x1="-74.197" x2="1001.25" y1="-54.648" y2="984.588" gradientUnits="userSpaceOnUse"><stop offset="0" style="stop-color:#dff4ff"/><stop offset=".098" style="stop-color:#d6eaf5"/><stop offset=".268" style="stop-color:#bfd0d9"/><stop offset=".488" style="stop-color:#98a5ac"/><stop offset=".747" style="stop-color:#646b6e"/><stop offset="1" style="stop-color:#2b2b2b"/></linearGradient><path fill="url(#XMLID_1_)" d="M506.86,0C226.94,0,0,226.918,0,506.848c0,279.926,226.94,506.848,506.86,506.848 c279.94,0,506.857-226.922,506.857-506.848C1013.718,226.918,786.801,0,506.86,0z M506.86,988.352 c-265.939,0-481.495-215.574-481.495-481.504c0-265.927,215.556-481.512,481.495-481.512 c265.937,0,481.511,215.584,481.511,481.512C988.371,772.778,772.797,988.352,506.86,988.352z"/><path fill="#333" d="M992.003,506.848c0,267.914-217.227,485.133-485.143,485.133c-267.919,0-485.123-217.219-485.123-485.133 c0-267.929,217.204-485.133,485.123-485.133C774.776,21.715,992.003,238.919,992.003,506.848z"/><radialGradient id="XMLID_2_" cx="-6.317" cy="33.522" r="720.108" fx="-6.317" fy="33.522" gradientUnits="userSpaceOnUse"><stop offset="0" style="stop-color:#fff"/><stop offset=".306" style="stop-color:#a8a8a8"/><stop offset=".646" style="stop-color:#4f4f4f"/><stop offset=".885" style="stop-color:#161616"/><stop offset="1" style="stop-color:#000"/></radialGradient><path fill="url(#XMLID_2_)" d="M988.371,506.848c0,265.93-215.574,481.504-481.511,481.504 c-265.939,0-481.495-215.574-481.495-481.504c0-265.927,215.556-481.512,481.495-481.512 C772.797,25.336,988.371,240.921,988.371,506.848z"/><linearGradient id="XMLID_3_" x1="54.041" x2="738.989" y1="304.847" y2="966.733" gradientTransform="matrix(-1 0 0 -1 930.9756 1169.3057)" gradientUnits="userSpaceOnUse"><stop offset="0" style="stop-color:#dff4ff"/><stop offset=".086" style="stop-color:#d6eaf5"/><stop offset=".233" style="stop-color:#bed0d9"/><stop offset=".424" style="stop-color:#96a4ac"/><stop offset=".652" style="stop-color:#5f686d"/><stop offset=".907" style="stop-color:#1a1d1e"/><stop offset="1" style="stop-color:#000"/></linearGradient><path fill="url(#XMLID_3_)" d="M829.676,506.848c0,178.28-144.53,322.803-322.815,322.803 c-178.289,0-322.819-144.522-322.819-322.803c0-178.289,144.53-322.816,322.819-322.816 C685.146,184.032,829.676,328.56,829.676,506.848z"/><polygon points="519.79 175.308 553.324 86.431 553.324 175.308 578.792 175.308 578.792 48.021 540.518 48.021 505.704 139.157 506.035 139.157 471.223 48.021 432.947 48.021 432.947 175.308 458.416 175.308 458.416 86.431 491.949 175.308"/><polygon points="869.313 232.384 825.798 295.831 894.146 262.216 912.684 284.447 805.115 338.459 783.379 312.144 825.077 249.275 824.83 248.965 755.473 278.651 733.489 252.513 806.021 156.469 824.563 178.712 779.146 239.871 849.433 208.522"/><path fill="#333" d="M281.427,208.068c-10.251-9.951-26.069-12.951-40.939-3.733c2.847-7.363,1.691-14.858,0.186-19.015 c-6.414-11.662-8.662-13.137-13.899-17.561c-17.097-14.324-35.082-2.093-47.93,13.219l-62.116,74.028l97.651,81.925l65.5-78.047 C294.851,241.046,297.162,223.361,281.427,208.068z M155.106,243.768l37.311-44.464c4.33-5.146,14.106-4.94,20.375,0.341 c6.908,5.795,6.928,14.002,2.289,19.54l-36.896,43.95L155.106,243.768z M258.04,251.161l-38.896,46.353l-24.355-20.47 l39.185-46.711c4.434-5.281,14.313-6.817,20.974-1.229C262.453,235.416,263.195,245.016,258.04,251.161z"/><radialGradient id="XMLID_4_" cx="-135.647" cy="-39.812" r="1730.313" fx="-135.647" fy="-39.812" gradientUnits="userSpaceOnUse"><stop offset="0" style="stop-color:#fff"/><stop offset=".31" style="stop-color:#fdfdfd"/><stop offset=".451" style="stop-color:#f6f6f6"/><stop offset=".557" style="stop-color:#e9e9e9"/><stop offset=".646" style="stop-color:#d7d7d7"/><stop offset=".724" style="stop-color:#bfbfbf"/><stop offset=".794" style="stop-color:#a2a2a2"/><stop offset=".859" style="stop-color:gray"/><stop offset=".92" style="stop-color:#575757"/><stop offset=".975" style="stop-color:#2b2b2b"/><stop offset="1" style="stop-color:#141414"/></radialGradient><polygon fill="url(#XMLID_4_)" points="520.06 170.39 553.592 81.515 553.592 170.39 579.063 170.39 579.063 43.103 540.784 43.103 505.973 134.236 506.303 134.236 471.491 43.103 433.212 43.103 433.212 170.39 458.683 170.39 458.683 81.515 492.218 170.39"/><radialGradient id="XMLID_5_" cx="-135.723" cy="-39.812" r="1730.461" fx="-135.723" fy="-39.812" gradientUnits="userSpaceOnUse"><stop offset="0" style="stop-color:#fff"/><stop offset=".31" style="stop-color:#fdfdfd"/><stop offset=".451" style="stop-color:#f6f6f6"/><stop offset=".557" style="stop-color:#e9e9e9"/><stop offset=".646" style="stop-color:#d7d7d7"/><stop offset=".724" style="stop-color:#bfbfbf"/><stop offset=".794" style="stop-color:#a2a2a2"/><stop offset=".859" style="stop-color:gray"/><stop offset=".92" style="stop-color:#575757"/><stop offset=".975" style="stop-color:#2b2b2b"/><stop offset="1" style="stop-color:#141414"/></radialGradient><polygon fill="url(#XMLID_5_)" points="869.563 223.844 826.067 287.293 894.413 253.667 912.934 275.909 805.38 329.921 783.645 303.596 825.345 240.735 825.1 240.416 755.72 270.114 733.759 243.963 806.291 147.93 824.83 170.164 779.419 231.322 849.68 199.985"/><radialGradient id="XMLID_6_" cx="-135.817" cy="-40.32" r="1731.787" fx="-135.817" fy="-40.32" gradientUnits="userSpaceOnUse"><stop offset="0" style="stop-color:#fff"/><stop offset=".31" style="stop-color:#fdfdfd"/><stop offset=".451" style="stop-color:#f6f6f6"/><stop offset=".557" style="stop-color:#e9e9e9"/><stop offset=".646" style="stop-color:#d7d7d7"/><stop offset=".724" style="stop-color:#bfbfbf"/><stop offset=".794" style="stop-color:#a2a2a2"/><stop offset=".859" style="stop-color:gray"/><stop offset=".92" style="stop-color:#575757"/><stop offset=".975" style="stop-color:#2b2b2b"/><stop offset="1" style="stop-color:#141414"/></radialGradient><path fill="url(#XMLID_6_)" d="M276.868,205.563c-10.23-9.951-26.069-12.953-40.916-3.743c2.824-7.364,1.67-14.86,0.166-18.996 c-6.415-11.682-8.642-13.137-13.923-17.57c-17.096-14.333-35.059-2.095-47.887,13.231l-62.139,74.016l97.653,81.926l65.499-78.059 C290.274,238.529,292.603,220.856,276.868,205.563z M150.551,241.261l37.307-44.453c4.312-5.155,14.086-4.949,20.376,0.319 c6.909,5.806,6.93,14.023,2.268,19.54l-36.873,43.959L150.551,241.261z M253.503,248.654l-38.896,46.352l-24.398-20.47 l39.207-46.721c4.433-5.269,14.291-6.806,20.953-1.216C257.916,232.919,258.659,242.499,253.503,248.654z"/><radialGradient id="XMLID_7_" cx="174.253" cy="200.075" r="466.718" fx="174.253" fy="200.075" gradientUnits="userSpaceOnUse"><stop offset="0" style="stop-color:#e6e6e6"/><stop offset=".104" style="stop-color:#d6d6d6"/><stop offset=".307" style="stop-color:#adadad"/><stop offset=".588" style="stop-color:#6c6c6c"/><stop offset=".933" style="stop-color:#121212"/><stop offset="1" style="stop-color:#000"/></radialGradient><path fill="url(#XMLID_7_)" d="M194.788,506.852c0-172.358,139.724-312.082,312.073-312.082 c172.367,0,312.072,139.724,312.072,312.082c0,172.351-139.705,312.071-312.072,312.071 C334.511,818.923,194.788,679.203,194.788,506.852z"/><radialGradient id="XMLID_8_" cx="301.906" cy="262.848" r="678.742" fx="301.906" fy="262.848" gradientUnits="userSpaceOnUse"><stop offset="0" style="stop-color:#fff"/><stop offset=".344" style="stop-color:#fdfdfd"/><stop offset=".481" style="stop-color:#f6f6f6"/><stop offset=".582" style="stop-color:#eaeaea"/><stop offset=".665" style="stop-color:#d8d8d8"/><stop offset=".737" style="stop-color:#c2c2c2"/><stop offset=".802" style="stop-color:#a6a6a6"/><stop offset=".86" style="stop-color:#848484"/><stop offset=".913" style="stop-color:#5f5f5f"/><stop offset=".949" style="stop-color:#404040"/><stop offset=".957" style="stop-color:#404040"/><stop offset="1" style="stop-color:#404040"/><stop offset="1" style="stop-color:#000"/></radialGradient><path fill="url(#XMLID_8_)" d="M203.759,506.852c0-167.399,135.702-303.112,303.102-303.112s303.12,135.712,303.12,303.112 c0,167.401-135.721,303.113-303.12,303.113S203.759,674.253,203.759,506.852z"/><radialGradient id="XMLID_9_" cx="102.618" cy="5.56" r="1202.06" fx="102.618" fy="5.56" gradientUnits="userSpaceOnUse"><stop offset=".169" style="stop-color:#fff"/><stop offset=".196" style="stop-color:#e0eff7"/><stop offset=".241" style="stop-color:#b2d9ec"/><stop offset=".287" style="stop-color:#8bc5e2"/><stop offset=".335" style="stop-color:#6bb5da"/><stop offset=".384" style="stop-color:#52a9d4"/><stop offset=".436" style="stop-color:#41a0cf"/><stop offset=".491" style="stop-color:#369bcd"/><stop offset=".556" style="stop-color:#39c"/><stop offset=".606" style="stop-color:#3396c8"/><stop offset=".655" style="stop-color:#328ebc"/><stop offset=".705" style="stop-color:#3180a8"/><stop offset=".754" style="stop-color:#2f6d8c"/><stop offset=".803" style="stop-color:#2d5468"/><stop offset=".851" style="stop-color:#2a373d"/><stop offset=".871" style="stop-color:#292929"/></radialGradient><path fill="url(#XMLID_9_)" d="M203.284,506.852H506.86V203.277C339.191,203.277,203.284,339.185,203.284,506.852z"/><radialGradient id="XMLID_10_" cx="102.618" cy="5.551" r="1202.037" fx="102.618" fy="5.551" gradientUnits="userSpaceOnUse"><stop offset=".169" style="stop-color:#fff"/><stop offset=".196" style="stop-color:#e0eff7"/><stop offset=".241" style="stop-color:#b2d9ec"/><stop offset=".287" style="stop-color:#8bc5e2"/><stop offset=".335" style="stop-color:#6bb5da"/><stop offset=".384" style="stop-color:#52a9d4"/><stop offset=".436" style="stop-color:#41a0cf"/><stop offset=".491" style="stop-color:#369bcd"/><stop offset=".556" style="stop-color:#39c"/><stop offset=".606" style="stop-color:#3396c8"/><stop offset=".655" style="stop-color:#328ebc"/><stop offset=".705" style="stop-color:#3180a8"/><stop offset=".754" style="stop-color:#2f6d8c"/><stop offset=".803" style="stop-color:#2d5468"/><stop offset=".851" style="stop-color:#2a373d"/><stop offset=".871" style="stop-color:#292929"/></radialGradient><path fill="url(#XMLID_10_)" d="M506.86,506.852v303.579c167.667,0,303.576-135.933,303.576-303.579H506.86z"/><radialGradient id="XMLID_11_" cx="180.627" cy="205.954" r="457.773" fx="180.627" fy="205.954" gradientUnits="userSpaceOnUse"><stop offset="0" style="stop-color:#e6e6e6"/><stop offset=".104" style="stop-color:#d6d6d6"/><stop offset=".307" style="stop-color:#adadad"/><stop offset=".588" style="stop-color:#6c6c6c"/><stop offset=".933" style="stop-color:#121212"/><stop offset="1" style="stop-color:#000"/></radialGradient><polygon fill="url(#XMLID_11_)" points="812.95 501.458 512.242 501.458 512.242 200.75 501.476 200.75 501.476 501.458 200.768 501.458 200.768 512.225 501.476 512.225 501.476 812.942 512.242 812.942 512.242 512.225 812.95 512.225"/><linearGradient id="XMLID_12_" x1="446.835" x2="893.254" y1="91.655" y2="523.042" gradientUnits="userSpaceOnUse"><stop offset="0" style="stop-color:#f0f4ff"/><stop offset=".109" style="stop-color:#ebeff9"/><stop offset=".247" style="stop-color:#dce0ea"/><stop offset=".403" style="stop-color:#c4c7cf"/><stop offset=".57" style="stop-color:#a2a4ab"/><stop offset=".747" style="stop-color:#76777c"/><stop offset=".929" style="stop-color:#414243"/><stop offset="1" style="stop-color:#2b2b2b"/></linearGradient><path fill="url(#XMLID_12_)" d="M512.242,209.267c160.141,2.848,289.366,132.062,292.232,292.191h5.36 c-2.863-163.099-134.482-294.736-297.593-297.583V209.267z"/><path fill="#C2D7E8" d="M208.729,501.418c2.845-160.347,132.256-289.747,292.604-292.604v-5.383 c-163.336,2.856-295.12,134.669-297.987,297.986H208.729z"/><linearGradient id="XMLID_13_" x1="84.488" x2="530.914" y1="455.87" y2="887.265" gradientUnits="userSpaceOnUse"><stop offset="0" style="stop-color:#f0f4ff"/><stop offset=".109" style="stop-color:#ebeff9"/><stop offset=".247" style="stop-color:#dce0ea"/><stop offset=".403" style="stop-color:#c4c7cf"/><stop offset=".57" style="stop-color:#a2a4ab"/><stop offset=".747" style="stop-color:#76777c"/><stop offset=".929" style="stop-color:#414243"/><stop offset="1" style="stop-color:#2b2b2b"/></linearGradient><path fill="url(#XMLID_13_)" d="M501.476,804.433c-160.139-2.844-289.364-132.069-292.211-292.208h-5.381 c2.866,163.108,134.484,294.75,297.593,297.594V804.433z"/><path fill="#12404F" d="M804.475,512.225c-2.866,160.139-132.092,289.364-292.232,292.208v5.386 c163.11-2.844,294.747-134.485,297.593-297.594H804.475z"/><linearGradient id="XMLID_14_" x1="300.459" x2="531.948" y1="302.041" y2="525.736" gradientUnits="userSpaceOnUse"><stop offset="0" style="stop-color:#c2d7e8"/><stop offset=".134" style="stop-color:#bacfe1"/><stop offset=".343" style="stop-color:#a4bacd"/><stop offset=".6" style="stop-color:#8098ac"/><stop offset=".894" style="stop-color:#4e697f"/><stop offset="1" style="stop-color:#3a566d"/></linearGradient><polygon fill="url(#XMLID_14_)" points="495.724 203.432 495.724 495.551 203.614 495.551 203.614 501.315 495.724 501.315 501.476 501.315 501.476 495.551 501.476 203.432"/><linearGradient id="XMLID_15_" x1="184.524" x2="626.457" y1="356.854" y2="783.908" gradientUnits="userSpaceOnUse"><stop offset="0" style="stop-color:#f0f4ff"/><stop offset=".097" style="stop-color:#e8ebf6"/><stop offset=".257" style="stop-color:#d1d4dd"/><stop offset=".459" style="stop-color:#abaeb5"/><stop offset=".695" style="stop-color:#78797d"/><stop offset=".958" style="stop-color:#363637"/><stop offset="1" style="stop-color:#2b2b2b"/></linearGradient><polygon fill="url(#XMLID_15_)" points="495.229 806.995 495.229 518.391 206.029 518.391 206.029 512.7 495.229 512.7 500.92 512.7 500.92 518.391 500.92 806.995"/><linearGradient id="XMLID_16_" x1="510.257" x2="665.275" y1="515.267" y2="665.066" gradientUnits="userSpaceOnUse"><stop offset="0" style="stop-color:#d9def0"/><stop offset=".123" style="stop-color:#d4daec"/><stop offset=".263" style="stop-color:#c7cfe2"/><stop offset=".411" style="stop-color:#b0bcd1"/><stop offset=".566" style="stop-color:#90a1b8"/><stop offset=".725" style="stop-color:#677f99"/><stop offset=".885" style="stop-color:#355674"/><stop offset=".972" style="stop-color:#173d5d"/></linearGradient><polygon fill="url(#XMLID_16_)" points="518.409 806.995 518.409 518.391 807.011 518.391 807.011 512.7 518.409 512.7 512.737 512.7 512.737 518.391 512.737 806.995"/><linearGradient id="XMLID_17_" x1="351.678" x2="793.132" y1="194.776" y2="621.366" gradientUnits="userSpaceOnUse"><stop offset="0" style="stop-color:#f0f4ff"/><stop offset=".109" style="stop-color:#ebeff9"/><stop offset=".247" style="stop-color:#dce0ea"/><stop offset=".403" style="stop-color:#c4c7cf"/><stop offset=".57" style="stop-color:#a2a4ab"/><stop offset=".747" style="stop-color:#76777c"/><stop offset=".929" style="stop-color:#414243"/><stop offset="1" style="stop-color:#2b2b2b"/></linearGradient><polygon fill="url(#XMLID_17_)" points="518.409 206.011 518.409 494.613 807.011 494.613 807.011 500.295 518.409 500.295 512.737 500.295 512.737 494.613 512.737 206.011"/></g></svg>