<svg xmlns="http://www.w3.org/2000/svg" xmlns:xlink="http://www.w3.org/1999/xlink" id="Layer_1" width="500" height="500" x="0" y="0" enable-background="new 0 0 500 500" version="1.1" viewBox="0 0 500 500" xml:space="preserve"><path fill="#99425B" stroke="#FFF" stroke-width="20" d="M406.54,252.668c-0.603,0.366-20.478-2.969-45.383-4.655	c-20.339-1.378-44.034-1.326-63.327-0.019c-15.645,1.059-36.201-6.805-38.658,2.541c-9.194,34.988-28.975,65.46-54.139,89.201	c-18.931,17.86-40.597,31.403-64.032,39.747c-27.899-14.332-41.075-46.208-29.186-74.156c9.429-22.167,20.401-46.583,0.145-52.168	c-14.746-4.067-22.843,10.059-28.511,25.161c-10.859,28.931-31.493,58.868-37.373,94.327c-6.207,37.434-0.02,77.169,32.356,99.608	c75.4,52.259,157.247-32.396,243.543-53.676c31.275-7.713,65.605-6.47,93.16-22.429c20.692-11.985,34.333-31.846,38.205-54.145	C459.567,306.14,440.908,270.506,406.54,252.668z"/><path fill="none" stroke="#FFF" stroke-width="20" d="M259.172,250.535c-9.194,34.988-28.975,65.46-54.139,89.201	c-18.931,17.86-40.597,31.403-64.033,39.747c-27.899-14.332-41.075-46.208-29.186-74.156c9.429-22.168,20.401-46.583,0.145-52.168	c-14.746-4.067-22.843,10.059-28.511,25.161c-10.859,28.931-31.493,58.868-37.373,94.327c-6.207,37.434-0.02,77.169,32.356,99.608	c75.4,52.259,157.247-32.396,243.544-53.676c31.275-7.713,65.605-6.47,93.16-22.429c20.692-11.985,34.333-31.846,38.205-54.144	c6.227-35.866-12.431-71.499-46.799-89.337"/><polygon fill="#99425B" points="328.389 111.009 389.012 234.678 461.657 20.422 194.941 20.422 267.418 234.297"/><polygon fill="none" stroke="#FFF" stroke-width="20" points="328.389 111.009 389.012 234.678 461.656 20.422 194.941 20.422 267.418 234.297"/><circle cx="254.838" cy="250.973" r="45.695" fill="#99425B"/><circle cx="254.838" cy="250.973" r="45.695" fill="none" stroke="#FFF" stroke-width="20"/><circle cx="403.698" cy="250.973" r="45.695" fill="#99425B" stroke="#FFF" stroke-width="20"/><circle cx="403.698" cy="250.973" r="45.695" fill="none" stroke="#FFF" stroke-width="20"/><circle cx="105.416" cy="251.301" r="45.695" fill="#99425B"/><circle cx="105.416" cy="251.301" r="45.695" fill="none" stroke="#FFF" stroke-width="20"/></svg>