<svg xmlns="http://www.w3.org/2000/svg" xmlns:xlink="http://www.w3.org/1999/xlink" id="图层_1" width="500" height="500" x="0" y="0" enable-background="new 0 0 500 500" version="1.1" viewBox="0 0 500 500" xml:space="preserve"><g><rect width="234.379" height="46.343" x="6.5" y="153.924" fill="#A7A9AC"/><rect width="234.379" height="46.343" x="6.5" y="229.565" fill="#818285"/><rect width="234.379" height="46.343" x="6.5" y="299.879" fill="#58585A"/><rect width="234.379" height="46.343" x="6.5" y="79.349" fill="#D1D2D4"/><rect width="234.379" height="46.343" x="6.5" y="375.519" fill="#231F20"/></g><rect width="99.611" height="46.343" x="269.111" y="153.924" fill="#992224"/><rect width="99.611" height="46.343" x="269.111" y="229.565" fill="#630F16"/><rect width="99.611" height="46.343" x="269.111" y="299.879" fill="#2B1415"/><rect width="99.611" height="46.343" x="269.111" y="79.349" fill="#E7282D"/><rect width="99.611" height="46.343" x="269.111" y="375.519" fill="#231F20"/><g><rect width="99.611" height="46.343" x="395.889" y="156.055" fill="#A7A9AC"/><rect width="99.611" height="46.343" x="395.889" y="231.696" fill="#818285"/><rect width="99.611" height="46.343" x="395.889" y="302.009" fill="#58585A"/><rect width="99.611" height="46.343" x="395.889" y="81.48" fill="#D1D2D4"/><rect width="99.611" height="46.343" x="395.889" y="377.65" fill="#231F20"/></g></svg>