<svg xmlns="http://www.w3.org/2000/svg" xmlns:svg="http://www.w3.org/2000/svg" xmlns:xlink="http://www.w3.org/1999/xlink" id="Layer_1" width="500" height="500" x="0" y="0" enable-background="new -110.664 -69.781 500 500" version="1.1" viewBox="-110.664 -69.781 500 500" xml:space="preserve"><g id="T" transform="translate(-33.796,-64.797)"><path id="path35" fill="#E82127" d="M176.159,488.016l67.369-378.887 c64.215,0,84.47,7.041,87.394,35.783c0,0,43.077-16.062,64.803-48.683c-84.783-39.287-169.97-41.058-169.97-41.058l-49.708,60.544 l0.112-0.008L126.45,55.161c0,0-85.189,1.774-169.961,41.06c21.708,32.621,64.802,48.683,64.802,48.683 c2.942-28.743,23.172-35.785,86.955-35.83L176.159,488.016"/><path id="path37" fill="#E82127" d="M176.132,37.683c68.535-0.524,146.981,10.602,227.286,45.603 c10.733-19.319,13.492-27.856,13.492-27.856C329.125,20.698,246.915,8.812,176.122,8.514C105.333,8.812,23.127,20.7-64.646,55.429 c0,0,3.916,10.517,13.483,27.856c80.29-35.001,158.749-46.127,227.286-45.603H176.132"/></g></svg>