<svg xmlns="http://www.w3.org/2000/svg" xmlns:xlink="http://www.w3.org/1999/xlink" id="Layer_1" width="192" height="192" x="0" y="0" enable-background="new 0 0 192 192" version="1.1" viewBox="0 0 192 192" xml:space="preserve"><g><path fill="#E90000" d="M180.322,53.363c-2.024-7.622-7.988-13.624-15.56-15.661C151.037,34,96,34,96,34s-55.037,0-68.762,3.702 c-7.572,2.037-13.536,8.04-15.56,15.661C8,67.177,8,96,8,96s0,28.823,3.678,42.637c2.024,7.622,7.988,13.624,15.56,15.661 C40.963,158,96,158,96,158s55.037,0,68.762-3.702c7.572-2.037,13.536-8.04,15.56-15.661C184,124.823,184,96,184,96 S184,67.177,180.322,53.363z"/><polygon fill="#FFFFFE" points="78 122.169 78 69.831 124 96.001"/></g></svg>